HIERARCHY
ROOT Pelvis
{

	OFFSET     0.000000     0.000000     0.000000
	CHANNELS 6 Xposition Yposition Zposition Zrotation Xrotation Yrotation
	JOINT LowerBack
	{

		OFFSET    -0.000691     0.176488     0.017766
		CHANNELS 3 Zrotation Xrotation Yrotation
		JOINT Chest
		{

			OFFSET    -0.002754     0.128976    -0.000512
			CHANNELS 3 Zrotation Xrotation Yrotation
			JOINT back3
			{

				OFFSET     0.002471     0.201657    -0.000850
				CHANNELS 3 Zrotation Xrotation Yrotation
				JOINT Neck
				{

					OFFSET     0.001840     0.072570     0.000595
					CHANNELS 3 Zrotation Xrotation Yrotation
					JOINT Head
					{

						OFFSET     0.003323     0.152818     0.030907
						CHANNELS 3 Zrotation Xrotation Yrotation
						JOINT joint7
						{

							OFFSET     0.000612     0.183936     0.002625
							CHANNELS 3 Zrotation Xrotation Yrotation
							End Site
							{
								OFFSET     0.000000     0.000000     0.018310
							}
						}

					}

				}

				JOINT LeftCollar
				{

					OFFSET     0.053456     0.093486     0.002205
					CHANNELS 3 Zrotation Xrotation Yrotation
					JOINT LeftShoulder
					{

						OFFSET     0.112884    -0.020868     0.002319
						CHANNELS 3 Zrotation Xrotation Yrotation
						JOINT LeftElbow
						{

							OFFSET     0.297302     0.003523    -0.020737
							CHANNELS 3 Zrotation Xrotation Yrotation
							JOINT LeftWrist
							{

								OFFSET     0.290007     0.004431    -0.007313
								CHANNELS 3 Zrotation Xrotation Yrotation
								JOINT lf_hand
								{

									OFFSET     0.117001    -0.002589    -0.008771
									CHANNELS 3 Zrotation Xrotation Yrotation
									End Site
									{
										OFFSET     0.000000    -0.009821     0.000000
									}
								}

							}

						}

					}

				}

				JOINT RightCollar
				{

					OFFSET    -0.048666     0.096092     0.000301
					CHANNELS 3 Zrotation Xrotation Yrotation
					JOINT RightShoulder
					{

						OFFSET    -0.115072    -0.022479    -0.001894
						CHANNELS 3 Zrotation Xrotation Yrotation
						JOINT RightElbow
						{

							OFFSET    -0.297072     0.004954    -0.020752
							CHANNELS 3 Zrotation Xrotation Yrotation
							JOINT RightWrist
							{

								OFFSET    -0.292425    -0.005826    -0.023258
								CHANNELS 3 Zrotation Xrotation Yrotation
								JOINT rt_hand
								{

									OFFSET    -0.118185    -0.001061    -0.015047
									CHANNELS 3 Zrotation Xrotation Yrotation
									End Site
									{
										OFFSET     0.000000    -0.009987     0.000000
									}
								}

							}

						}

					}

				}

			}

			JOINT joint13
			{

				OFFSET     0.125914     0.117470     0.000000
				CHANNELS 3 Zrotation Xrotation Yrotation
				End Site
				{
					OFFSET     0.000000     0.000000    -0.017144
				}
			}

			JOINT joint14
			{

				OFFSET    -0.120063     0.114907     0.000000
				CHANNELS 3 Zrotation Xrotation Yrotation
				End Site
				{
					OFFSET     0.000000     0.000000    -0.016479
				}
			}

		}

	}

	JOINT RightHip
	{

		OFFSET    -0.109283    -0.057257     0.000987
		CHANNELS 3 Zrotation Xrotation Yrotation
		JOINT RightKnee
		{

			OFFSET     0.002149    -0.429339     0.038617
			CHANNELS 3 Zrotation Xrotation Yrotation
			JOINT RightAnkle
			{

				OFFSET    -0.001765    -0.522522    -0.077092
				CHANNELS 3 Zrotation Xrotation Yrotation
				JOINT r_ball
				{

					OFFSET    -0.000000    -0.037315     0.142913
					CHANNELS 3 Zrotation Xrotation Yrotation
					End Site
					{
						OFFSET     0.000000     0.000000     0.014648
					}
				}

			}

		}

	}

	JOINT LeftHip
	{

		OFFSET     0.098180    -0.056757     0.003895
		CHANNELS 3 Zrotation Xrotation Yrotation
		JOINT LeftKnee
		{

			OFFSET     0.007057    -0.430531     0.035812
			CHANNELS 3 Zrotation Xrotation Yrotation
			JOINT LeftAnkle
			{

				OFFSET    -0.005475    -0.521755    -0.078136
				CHANNELS 3 Zrotation Xrotation Yrotation
				JOINT lf_ball
				{

					OFFSET     0.000065    -0.036737     0.143337
					CHANNELS 3 Zrotation Xrotation Yrotation
					End Site
					{
						OFFSET     0.000000     0.000000     0.014648
					}
				}

			}

		}

	}

}

MOTION
Frames: 4
Frame Time: 0.033333
    0.000000     0.916736     0.000000     4.085058    10.638729   -48.054256    -8.196032   -12.375442     2.827865     4.814668     4.354879     6.160944     0.000000     0.000000     0.000000     0.000000     0.000000     0.000000     9.202702     1.362284    -8.504403     0.000000     0.000000     0.000000    14.834352    -1.647913    -6.194818   -93.476707     7.100906     0.027352     1.182634     2.048359   -59.997013    30.178236    35.005230   -13.384786     0.000000     0.000000     0.000000   -12.511189     1.006930    -4.557200    85.798157     9.891622   -38.031998    -2.365461     2.355913    90.231789   -20.093208    31.094818     3.057526     0.000000     0.000000     0.000000     0.000000     0.000000     0.000000     0.000000     0.000000     0.000000    20.043150    -3.869497    -5.909035     0.000000    -5.746472     0.000000   -12.554923    -9.176191     6.683772     0.000000     0.000000     0.000000    22.047720   -35.161392    11.550384     0.000000    64.418655     0.000000   -15.481443    23.626944    13.814301     0.000000     0.000000     0.000000 
   -0.024824     0.916784     0.044496     4.660166     9.129003   -55.581551    -7.150487   -11.918881     5.061523     3.592309     5.474247     8.440746     0.000000     0.000000     0.000000     0.000000     0.000000     0.000000     7.677989     0.712607    -3.596105     0.000000     0.000000     0.000000    14.305526    -0.970732    -3.799131   -95.356850     9.032517     6.497575     1.148999     2.027241   -59.083889    28.391008    34.804779   -11.796028     0.000000     0.000000     0.000000   -10.296484     0.494512    -2.758543    83.450539    14.554303   -27.682339    -2.404355     2.356680    91.386002   -24.101665    32.116699     6.200506     0.000000     0.000000     0.000000     0.000000     0.000000     0.000000     0.000000     0.000000     0.000000    17.656786     0.909363    -3.355959     0.000000    -5.774423     0.000000   -10.250366   -11.778588    10.469965     0.000000     0.000000     0.000000    23.895308   -33.283016    19.357452    -0.005791    55.664692     0.010969   -11.425050    19.402941    12.079747     0.000000     0.000000     0.000000 
   -0.049648     0.917048     0.088991     5.028533     7.543370   -63.966869    -6.128461   -11.420495     7.284492     2.332796     6.540414    10.752337     0.000000     0.000000     0.000000     0.000000     0.000000     0.000000     5.982511     0.118579     1.464821     0.000000     0.000000     0.000000    13.663858    -0.292330    -1.204974   -96.773460    10.475840    13.658167     1.109063     2.001245   -57.985847    26.635426    34.624664   -10.197435     0.000000     0.000000     0.000000    -8.064548     0.127738    -0.916684    79.049515    18.969654   -16.908333    -2.457566     2.351195    92.535141   -28.212599    32.937031     9.449965     0.000000     0.000000     0.000000     0.000000     0.000000     0.000000     0.000000     0.000000     0.000000    14.228536     5.582609     1.723779     0.000000    -6.355780     0.000000    -7.926700   -13.515986    13.019324     0.000000     0.000000     0.000000    23.504349   -31.857763    26.911987     0.000000    46.800468     0.000000    -6.870784    14.955566     9.790318     0.000000     0.000000     0.000000 
   -0.076075     0.917711     0.133272     5.155311     5.924654   -72.321190    -5.157136   -11.052835     9.079386     1.687270     7.418260    12.542350     0.000000     0.000000     0.000000     0.000000     0.000000     0.000000     3.663733     0.032273     6.701063     0.000000     0.000000     0.000000    13.037867     0.295299     1.290059   -98.213943    11.038709    21.395842     1.071468     1.974211   -56.976879    24.889320    34.373764    -8.640192     0.000000     0.000000     0.000000    -6.803326    -0.096207     0.793207    74.656265    22.888172    -6.131789    -2.470647     2.358256    92.902191   -30.518425    33.693653    11.121425     0.000000     0.000000     0.000000     0.000000     0.000000     0.000000     0.000000     0.000000     0.000000     9.771032    10.164095     4.897408     0.000000    -8.052105     0.000000    -4.426919   -14.809606    18.025190     0.000000     0.000000     0.000000    22.481527   -30.580843    34.269390     0.000000    37.847775     0.000000    -3.414166    10.568701     6.244283     0.000000     0.000000     0.000000 
